# xmcd
#
# Track frame offsets:
#	150
#	1564
#	19981
#	46960
#	57367
#	74737
#	92659
#	110377
#	131894
#	155094
#	168138
#	206577
#	226739
#	245361
#
# Disc length: 3560 seconds
#
# Revision: 1
# Processed by: cddbd v1.4PL0 Copyright (c) Steve Scherf et al.
# Submitted via: audiograbber 1.80.04
#
DISCID=b50de60e
DTITLE=Boogie Connection and Horns - Corn West Home (Live)
DYEAR=2001
DGENRE=Blues
TTITLE0=Introduction
TTITLE1=I Ain't Drunk
TTITLE2=Night Train
TTITLE3=Alley Boogie
TTITLE4=I'm Moving On
TTITLE5=Nobody Knows You When You're Down And Out
TTITLE6=Lovesick Blues
TTITLE7=There Must Be A Better World Somewhere
TTITLE8=Mr. Pinetop's Job
TTITLE9=Key To My Kingdom
TTITLE10=T' Ain't Nobody's Business
TTITLE11=Woke Up This Morning
TTITLE12=Fine Brown Frame
TTITLE13=Blue Suede Shoes
EXTD=IRCnet - #mp3.filez
EXTT0=
EXTT1=J. Liggins
EXTT2=Washington/Simpkins/Forrest
EXTT3=Trad./Pfaff/Scheytt
EXTT4=J.Sample/W.Jennings
EXTT5=J.Cox
EXTT6=I. Milles/C. Friend
EXTT7=D. Rebennack
EXTT8=Pinetop Perkins
EXTT9=Davis/Baum
EXTT10=Grainger/Robbins
EXTT11=R. King
EXTT12=G. Cartierro
EXTT13=C. Perkins
PLAYORDER=
